# ProBuilder 5.0.6
# https://unity3d.com/unity/features/worldbuilding/probuilder
# 2022/09/05 4:26:54 PM

mtllib ./Arch.mtl
o Arch

g Arch
v -7.69703 3.849732 -19.41173
v -7.314321 7.314833 -19.41173
v -7.69703 3.849732 17.58827
v -7.314321 7.314833 17.58827
v -7.216687 7.291732 -19.41173
v -7.596691 3.849732 -19.41173
v -7.216687 7.291732 17.58827
v -7.596691 3.849732 17.58827
v -6.186827 10.59313 -19.41173
v -6.186827 10.59313 17.58827
v -6.09716 10.54817 -19.41173
v -6.09716 10.54817 17.58827
v -4.375328 13.50789 -19.41173
v -4.375328 13.50789 17.58827
v -4.298466 13.4435 -19.41173
v -4.298466 13.4435 17.58827
v -1.977488 15.90197 -19.41173
v -1.977488 15.90197 17.58827
v -1.917569 15.82162 -19.41173
v -1.917569 15.82162 17.58827
v 0.877429 17.64632 -19.41173
v 0.877429 17.64632 17.58827
v 0.917171 17.55434 -19.41173
v 0.917171 17.55434 17.58827
v 4.035513 18.64688 -19.41173
v 4.035513 18.64688 17.58827
v 4.052937 18.54823 -19.41173
v 4.052937 18.54823 17.58827
v 7.32651 18.84973 -19.41173
v 7.32651 18.84973 17.58827
v 7.320676 18.74973 -19.41173
v 7.320676 18.74973 17.58827
v 10.573 18.24393 -19.41173
v 10.573 18.24393 17.58827
v 10.54422 18.14796 -19.41173
v 10.54422 18.14796 17.58827
v 13.59997 16.86213 -19.41173
v 13.59997 16.86213 17.58827
v 13.5498 16.77538 -19.41173
v 13.5498 16.77538 17.58827
v 16.24423 14.77883 -19.41173
v 16.24423 14.77883 17.58827
v 16.17537 14.70597 -19.41173
v 16.17537 14.70597 17.58827
v 18.36323 12.10633 -19.41173
v 18.36323 12.10633 17.58827
v 18.27939 12.05129 -19.41173
v 18.27939 12.05129 17.58827
v 19.84272 8.988729 -19.41173
v 19.84272 8.988729 17.58827
v 19.74844 8.95447 -19.41173
v 19.74844 8.95447 17.58827
v 20.60297 5.594078 -19.41173
v 20.60297 5.594078 17.58827
v 20.50331 5.582449 -19.41173
v 20.50331 5.582449 17.58827
v 20.60297 2.105388 -19.41173
v 20.60297 2.105388 17.58827
v 20.50331 2.117017 -19.41173
v 20.50331 2.117017 17.58827
v 19.84272 -1.289264 -19.41173
v 19.84272 -1.289264 17.58827
v 19.74844 -1.255004 -19.41173
v 19.74844 -1.255004 17.58827
v 18.36323 -4.406867 -19.41173
v 18.36323 -4.406867 17.58827
v 18.27939 -4.351824 -19.41173
v 18.27939 -4.351824 17.58827
v 16.24423 -7.079363 -19.41173
v 16.24423 -7.079363 17.58827
v 16.17537 -7.006501 -19.41173
v 16.17537 -7.006501 17.58827
v 13.59997 -9.162663 -19.41173
v 13.59997 -9.162663 17.58827
v 13.5498 -9.075914 -19.41173
v 13.5498 -9.075914 17.58827
v 10.573 -10.54446 -19.41173
v 10.573 -10.54446 17.58827
v 10.54423 -10.4485 -19.41173
v 10.54423 -10.4485 17.58827
v 7.326514 -11.15027 -19.41173
v 7.326514 -11.15027 17.58827
v 7.32068 -11.05027 -19.41173
v 7.32068 -11.05027 17.58827
v 4.035514 -10.94742 -19.41173
v 4.035514 -10.94742 17.58827
v 4.052938 -10.84877 -19.41173
v 4.052938 -10.84877 17.58827
v 0.8774266 -9.946849 -19.41173
v 0.8774266 -9.946849 17.58827
v 0.9171691 -9.85487 -19.41173
v 0.9171691 -9.85487 17.58827
v -1.977484 -8.20251 -19.41173
v -1.977484 -8.20251 17.58827
v -1.917563 -8.12216 -19.41173
v -1.917563 -8.12216 17.58827
v -4.375328 -5.808424 -19.41173
v -4.375328 -5.808424 17.58827
v -4.298464 -5.744035 -19.41173
v -4.298464 -5.744035 17.58827
v -6.186827 -2.893662 -19.41173
v -6.186827 -2.893662 17.58827
v -6.09716 -2.848706 -19.41173
v -6.09716 -2.848706 17.58827
v -7.314321 0.3846307 -19.41173
v -7.314321 0.3846307 17.58827
v -7.216687 0.4077315 -19.41173
v -7.216687 0.4077315 17.58827

vt -19.41173 2.98149
vt -19.41173 6.46766
vt 17.58827 2.98149
vt 17.58827 6.46766
vt 19.41173 6.45577
vt 19.41173 2.992858
vt -17.58827 6.45577
vt -17.58827 2.992858
vt -19.41173 4.538332
vt -19.41173 8.005096
vt 17.58827 4.538332
vt 17.58827 8.005096
vt 19.41173 7.992886
vt 19.41173 4.549378
vt -17.58827 7.992886
vt -17.58827 4.549378
vt -19.41173 5.731367
vt -19.41173 9.163181
vt 17.58827 5.731367
vt 17.58827 9.163181
vt 19.41173 9.15101
vt 19.41173 5.74246
vt -17.58827 9.15101
vt -17.58827 5.74246
vt -6.447779 -19.41173
vt -9.836182 -19.41173
vt -6.447779 17.58827
vt -9.836182 17.58827
vt 9.824345 -19.41173
vt 6.459208 -19.41173
vt 9.824345 17.58827
vt 6.459208 17.58827
vt -6.603516 -19.41173
vt -9.949153 -19.41173
vt -6.603516 17.58827
vt -9.949153 17.58827
vt 9.937701 -19.41173
vt 6.615345 -19.41173
vt 9.937701 17.58827
vt 6.615345 17.58827
vt -6.16618 -19.41173
vt -9.478977 -19.41173
vt -6.16618 17.58827
vt -9.478977 17.58827
vt 9.467706 -19.41173
vt 6.178199 -19.41173
vt 9.467706 17.58827
vt 6.178199 17.58827
vt -5.175047 -19.41173
vt -8.47229 -19.41173
vt -5.175047 17.58827
vt -8.47229 17.58827
vt 8.460778 -19.41173
vt 5.186832 -19.41173
vt 8.460778 17.58827
vt 5.186832 17.58827
vt -3.744451 -19.41173
vt -7.046982 -19.41173
vt -3.744451 17.58827
vt -7.046982 17.58827
vt 7.034852 -19.41173
vt 3.755616 -19.41173
vt 7.034852 17.58827
vt 3.755616 17.58827
vt -2.042025 -19.41173
vt -5.369472 -19.41173
vt -2.042025 17.58827
vt -5.369472 17.58827
vt 5.356678 -19.41173
vt 2.052517 -19.41173
vt 5.356678 17.58827
vt 2.052517 17.58827
vt -0.2474201 -19.41173
vt -3.613758 -19.41173
vt -0.2474201 17.58827
vt -3.613758 17.58827
vt 3.600543 -19.41173
vt 0.2574801 -19.41173
vt 3.600543 17.58827
vt 0.2574801 17.58827
vt 19.41173 1.487943
vt 19.41173 -1.922685
vt -17.58827 1.487943
vt -17.58827 -1.922685
vt -19.41173 -1.909453
vt -19.41173 1.47791
vt 17.58827 -1.909453
vt 17.58827 1.47791
vt 19.41173 3.064289
vt 19.41173 -0.3865615
vt -17.58827 3.064289
vt -17.58827 -0.3865615
vt -19.41173 -0.3736995
vt -19.41173 3.053892
vt 17.58827 -0.3736995
vt 17.58827 3.053892
vt 19.41173 4.435033
vt 19.41173 0.9562935
vt -17.58827 4.435033
vt -17.58827 0.9562935
vt -19.41173 0.9685524
vt -19.41173 4.424034
vt 17.58827 0.9685524
vt 17.58827 4.424034
vt 19.41173 5.594078
vt 19.41173 2.105388
vt -17.58827 5.594078
vt -17.58827 2.105388
vt -19.41173 2.117017
vt -19.41173 5.582449
vt 17.58827 2.117017
vt 17.58827 5.582449
vt 19.41173 6.557061
vt 19.41173 3.078321
vt -17.58827 6.557061
vt -17.58827 3.078321
vt -19.41173 3.089465
vt -19.41173 6.544947
vt 17.58827 3.089465
vt 17.58827 6.544947
vt 19.41173 7.342498
vt 19.41173 3.891649
vt -17.58827 7.342498
vt -17.58827 3.891649
vt -19.41173 3.902562
vt -19.41173 7.330152
vt 17.58827 3.902562
vt 17.58827 7.330152
vt 19.41173 7.955814
vt 19.41173 4.545185
vt -17.58827 7.955814
vt -17.58827 4.545185
vt -19.41173 4.556162
vt -19.41173 7.943526
vt 17.58827 4.556162
vt 17.58827 7.943526
vt 8.378686 -19.41173
vt 5.012347 -19.41173
vt 8.378686 17.58827
vt 5.012347 17.58827
vt -5.023572 -19.41173
vt -8.366638 -19.41173
vt -5.023572 17.58827
vt -8.366638 17.58827
vt 8.566836 -19.41173
vt 5.239392 -19.41173
vt 8.566836 17.58827
vt 5.239392 17.58827
vt -5.250951 -19.41173
vt -8.55511 -19.41173
vt -5.250951 17.58827
vt -8.55511 17.58827
vt 8.459353 -19.41173
vt 5.156825 -19.41173
vt 8.459353 17.58827
vt 5.156825 17.58827
vt -5.168553 -19.41173
vt -8.447785 -19.41173
vt -5.168553 17.58827
vt -8.447785 17.58827
vt 7.998613 -19.41173
vt 4.701367 -19.41173
vt 7.998613 17.58827
vt 4.701367 17.58827
vt -4.712945 -19.41173
vt -7.986894 -19.41173
vt -4.712945 17.58827
vt -7.986894 17.58827
vt 7.153503 -19.41173
vt 3.840703 -19.41173
vt 7.153503 17.58827
vt 3.840703 17.58827
vt -3.851874 -19.41173
vt -7.141384 -19.41173
vt -3.851874 17.58827
vt -7.141384 17.58827
vt 5.934804 -19.41173
vt 2.589175 -19.41173
vt 5.934804 17.58827
vt 2.589175 17.58827
vt -2.599839 -19.41173
vt -5.922187 -19.41173
vt -2.599839 17.58827
vt -5.922187 17.58827
vt 4.396111 -19.41173
vt 1.007704 -19.41173
vt 4.396111 17.58827
vt 1.007704 17.58827
vt -1.018032 -19.41173
vt -4.383172 -19.41173
vt -1.018032 17.58827
vt -4.383172 17.58827
vt -19.41173 -2.623763
vt -19.41173 0.808054
vt 17.58827 -2.623763
vt 17.58827 0.808054
vt 19.41173 0.7976995
vt 19.41173 -2.610854
vt -17.58827 0.7976995
vt -17.58827 -2.610854
vt -19.41173 -0.7242092
vt -19.41173 2.742554
vt 17.58827 -0.7242092
vt 17.58827 2.742554
vt 19.41173 2.731817
vt 19.41173 -0.7116876
vt -17.58827 2.731817
vt -17.58827 -0.7116876
vt -19.41173 1.185266
vt -19.41173 4.671441
vt 17.58827 1.185266
vt 17.58827 4.671441
vt 19.41173 4.66011
vt 19.41173 1.197194
vt -17.58827 4.66011
vt -17.58827 1.197194
vt -7.69703 3.849732
vt -7.314321 7.314833
vt -7.596691 3.849732
vt -7.216687 7.291732
vt 7.314321 7.314833
vt 7.69703 3.849732
vt 7.216687 7.291732
vt 7.596691 3.849732
vt -6.186827 10.59313
vt -6.09716 10.54817
vt 6.186827 10.59313
vt 6.09716 10.54817
vt -4.375328 13.50789
vt -4.298466 13.4435
vt 4.375328 13.50789
vt 4.298466 13.4435
vt -1.977488 15.90197
vt -1.917569 15.82162
vt 1.977488 15.90197
vt 1.917569 15.82162
vt 0.877429 17.64632
vt 0.917171 17.55434
vt -0.877429 17.64632
vt -0.917171 17.55434
vt 4.035513 18.64688
vt 4.052937 18.54823
vt -4.035513 18.64688
vt -4.052937 18.54823
vt 7.32651 18.84973
vt 7.320676 18.74973
vt -7.32651 18.84973
vt -7.320676 18.74973
vt 10.573 18.24393
vt 10.54422 18.14796
vt -10.573 18.24393
vt -10.54422 18.14796
vt 13.59997 16.86213
vt 13.5498 16.77538
vt -13.59997 16.86213
vt -13.5498 16.77538
vt 16.24423 14.77883
vt 16.17537 14.70597
vt -16.24423 14.77883
vt -16.17537 14.70597
vt 18.36323 12.10633
vt 18.27939 12.05129
vt -18.36323 12.10633
vt -18.27939 12.05129
vt 19.84272 8.988729
vt 19.74844 8.95447
vt -19.84272 8.988729
vt -19.74844 8.95447
vt 20.60297 5.594078
vt 20.50331 5.582449
vt -20.60297 5.594078
vt -20.50331 5.582449
vt 20.60297 2.105388
vt 20.50331 2.117017
vt -20.60297 2.105388
vt -20.50331 2.117017
vt 19.84272 -1.289264
vt 19.74844 -1.255004
vt -19.84272 -1.289264
vt -19.74844 -1.255004
vt 18.36323 -4.406867
vt 18.27939 -4.351824
vt -18.36323 -4.406867
vt -18.27939 -4.351824
vt 16.24423 -7.079363
vt 16.17537 -7.006501
vt -16.24423 -7.079363
vt -16.17537 -7.006501
vt 13.59997 -9.162663
vt 13.5498 -9.075914
vt -13.59997 -9.162663
vt -13.5498 -9.075914
vt 10.573 -10.54446
vt 10.54423 -10.4485
vt -10.573 -10.54446
vt -10.54423 -10.4485
vt 7.326514 -11.15027
vt 7.32068 -11.05027
vt -7.326514 -11.15027
vt -7.32068 -11.05027
vt 4.035514 -10.94742
vt 4.052938 -10.84877
vt -4.035514 -10.94742
vt -4.052938 -10.84877
vt 0.8774266 -9.946849
vt 0.9171691 -9.85487
vt -0.8774266 -9.946849
vt -0.9171691 -9.85487
vt -1.977484 -8.20251
vt -1.917563 -8.12216
vt 1.977484 -8.20251
vt 1.917563 -8.12216
vt -4.375328 -5.808424
vt -4.298464 -5.744035
vt 4.375328 -5.808424
vt 4.298464 -5.744035
vt -6.186827 -2.893662
vt -6.09716 -2.848706
vt 6.186827 -2.893662
vt 6.09716 -2.848706
vt -7.314321 0.3846307
vt -7.216687 0.4077315
vt 7.314321 0.3846307
vt 7.216687 0.4077315

vn -1 6.371503E-08 0
vn -0.9757603 0.2188421 0
vn 0.9757787 -0.2187601 0
vn 1 -6.371472E-08 0
vn -0.9031852 0.4292511 0
vn 0.9032506 -0.4291134 0
vn -0.783121 0.6218693 0
vn 0.78324 -0.6217194 0
vn -0.6182705 0.7859654 0
vn 0.6184199 -0.7858478 0
vn -0.4147283 0.9099453 0
vn 0.4148625 -0.9098841 0
vn -0.1831513 0.9830847 0
vn 0.183221 -0.9830718 0
vn 0.06142209 0.9981119 0
vn -0.06144589 -0.9981104 0
vn 0.3015921 0.9534371 0
vn -0.3016995 -0.9534031 0
vn 0.5207834 0.8536889 0
vn -0.5209318 -0.8535983 0
vn 0.7060108 0.7082012 0
vn -0.7061495 -0.7080628 0
vn 0.8489814 0.5284227 0
vn -0.8490745 -0.528273 0
vn 0.9454886 0.3256551 0
vn -0.9455281 -0.3255405 0
vn 0.9939387 0.1099362 0
vn -0.9939434 -0.1098934 0
vn 0.9939387 -0.1099362 0
vn -0.9939434 0.1098934 0
vn 0.9454886 -0.3256551 0
vn -0.9455281 0.3255405 0
vn 0.8489815 -0.5284226 0
vn -0.8490745 0.5282731 0
vn 0.7060105 -0.7082013 0
vn -0.7061495 0.7080628 0
vn 0.5207833 -0.8536889 0
vn -0.5209322 0.8535981 0
vn 0.3015924 -0.953437 0
vn -0.3016993 0.9534031 0
vn 0.06142205 -0.9981119 0
vn -0.06144599 0.9981104 0
vn -0.1831513 -0.9830847 0
vn 0.1832206 0.9830719 0
vn -0.414728 -0.9099454 0
vn 0.4148629 0.9098839 0
vn -0.61827 -0.7859657 0
vn 0.6184196 0.785848 0
vn -0.7831211 -0.6218692 0
vn 0.7832398 0.6217198 0
vn -0.9031852 -0.429251 0
vn 0.9032506 0.4291136 0
vn -0.9757603 -0.2188421 0
vn 0.9757786 0.2187602 0
vn 0 0 1
vn 0 0 -1

usemtl Lit
f 3/3/1 4/4/2 2/2/2 1/1/1
f 7/7/3 8/8/4 6/6/4 5/5/3
f 4/11/2 10/12/5 9/10/5 2/9/2
f 12/15/6 7/16/3 5/14/3 11/13/6
f 10/19/5 14/20/7 13/18/7 9/17/5
f 16/23/8 12/24/6 11/22/6 15/21/8
f 14/27/7 18/28/9 17/26/9 13/25/7
f 20/31/10 16/32/8 15/30/8 19/29/10
f 18/35/9 22/36/11 21/34/11 17/33/9
f 24/39/12 20/40/10 19/38/10 23/37/12
f 22/43/11 26/44/13 25/42/13 21/41/11
f 28/47/14 24/48/12 23/46/12 27/45/14
f 26/51/13 30/52/15 29/50/15 25/49/13
f 32/55/16 28/56/14 27/54/14 31/53/16
f 30/59/15 34/60/17 33/58/17 29/57/15
f 36/63/18 32/64/16 31/62/16 35/61/18
f 34/67/17 38/68/19 37/66/19 33/65/17
f 40/71/20 36/72/18 35/70/18 39/69/20
f 38/75/19 42/76/21 41/74/21 37/73/19
f 44/79/22 40/80/20 39/78/20 43/77/22
f 42/83/21 46/84/23 45/82/23 41/81/21
f 48/87/24 44/88/22 43/86/22 47/85/24
f 46/91/23 50/92/25 49/90/25 45/89/23
f 52/95/26 48/96/24 47/94/24 51/93/26
f 50/99/25 54/100/27 53/98/27 49/97/25
f 56/103/28 52/104/26 51/102/26 55/101/28
f 54/107/27 58/108/29 57/106/29 53/105/27
f 60/111/30 56/112/28 55/110/28 59/109/30
f 58/115/29 62/116/31 61/114/31 57/113/29
f 64/119/32 60/120/30 59/118/30 63/117/32
f 62/123/31 66/124/33 65/122/33 61/121/31
f 68/127/34 64/128/32 63/126/32 67/125/34
f 66/131/33 70/132/35 69/130/35 65/129/33
f 72/135/36 68/136/34 67/134/34 71/133/36
f 70/139/35 74/140/37 73/138/37 69/137/35
f 76/143/38 72/144/36 71/142/36 75/141/38
f 74/147/37 78/148/39 77/146/39 73/145/37
f 80/151/40 76/152/38 75/150/38 79/149/40
f 78/155/39 82/156/41 81/154/41 77/153/39
f 84/159/42 80/160/40 79/158/40 83/157/42
f 82/163/41 86/164/43 85/162/43 81/161/41
f 88/167/44 84/168/42 83/166/42 87/165/44
f 86/171/43 90/172/45 89/170/45 85/169/43
f 92/175/46 88/176/44 87/174/44 91/173/46
f 90/179/45 94/180/47 93/178/47 89/177/45
f 96/183/48 92/184/46 91/182/46 95/181/48
f 94/187/47 98/188/49 97/186/49 93/185/47
f 100/191/50 96/192/48 95/190/48 99/189/50
f 98/195/49 102/196/51 101/194/51 97/193/49
f 104/199/52 100/200/50 99/198/50 103/197/52
f 102/203/51 106/204/53 105/202/53 101/201/51
f 108/207/54 104/208/52 103/206/52 107/205/54
f 106/211/53 3/212/1 1/210/1 105/209/53
f 8/215/4 108/216/54 107/214/54 6/213/4
f 8/219/55 7/220/55 4/218/55 3/217/55
f 5/223/56 6/224/56 1/222/56 2/221/56
f 7/220/55 12/226/55 10/225/55 4/218/55
f 11/228/56 5/223/56 2/221/56 9/227/56
f 12/226/55 16/230/55 14/229/55 10/225/55
f 15/232/56 11/228/56 9/227/56 13/231/56
f 16/230/55 20/234/55 18/233/55 14/229/55
f 19/236/56 15/232/56 13/231/56 17/235/56
f 20/234/55 24/238/55 22/237/55 18/233/55
f 23/240/56 19/236/56 17/235/56 21/239/56
f 24/238/55 28/242/55 26/241/55 22/237/55
f 27/244/56 23/240/56 21/239/56 25/243/56
f 28/242/55 32/246/55 30/245/55 26/241/55
f 31/248/56 27/244/56 25/243/56 29/247/56
f 32/246/55 36/250/55 34/249/55 30/245/55
f 35/252/56 31/248/56 29/247/56 33/251/56
f 36/250/55 40/254/55 38/253/55 34/249/55
f 39/256/56 35/252/56 33/251/56 37/255/56
f 40/254/55 44/258/55 42/257/55 38/253/55
f 43/260/56 39/256/56 37/255/56 41/259/56
f 44/258/55 48/262/55 46/261/55 42/257/55
f 47/264/56 43/260/56 41/259/56 45/263/56
f 48/262/55 52/266/55 50/265/55 46/261/55
f 51/268/56 47/264/56 45/263/56 49/267/56
f 52/266/55 56/270/55 54/269/55 50/265/55
f 55/272/56 51/268/56 49/267/56 53/271/56
f 56/270/55 60/274/55 58/273/55 54/269/55
f 59/276/56 55/272/56 53/271/56 57/275/56
f 60/274/55 64/278/55 62/277/55 58/273/55
f 63/280/56 59/276/56 57/275/56 61/279/56
f 64/278/55 68/282/55 66/281/55 62/277/55
f 67/284/56 63/280/56 61/279/56 65/283/56
f 68/282/55 72/286/55 70/285/55 66/281/55
f 71/288/56 67/284/56 65/283/56 69/287/56
f 72/286/55 76/290/55 74/289/55 70/285/55
f 75/292/56 71/288/56 69/287/56 73/291/56
f 76/290/55 80/294/55 78/293/55 74/289/55
f 79/296/56 75/292/56 73/291/56 77/295/56
f 80/294/55 84/298/55 82/297/55 78/293/55
f 83/300/56 79/296/56 77/295/56 81/299/56
f 84/298/55 88/302/55 86/301/55 82/297/55
f 87/304/56 83/300/56 81/299/56 85/303/56
f 88/302/55 92/306/55 90/305/55 86/301/55
f 91/308/56 87/304/56 85/303/56 89/307/56
f 92/306/55 96/310/55 94/309/55 90/305/55
f 95/312/56 91/308/56 89/307/56 93/311/56
f 96/310/55 100/314/55 98/313/55 94/309/55
f 99/316/56 95/312/56 93/311/56 97/315/56
f 100/314/55 104/318/55 102/317/55 98/313/55
f 103/320/56 99/316/56 97/315/56 101/319/56
f 104/318/55 108/322/55 106/321/55 102/317/55
f 107/324/56 103/320/56 101/319/56 105/323/56
f 108/322/55 8/219/55 3/217/55 106/321/55
f 6/224/56 107/324/56 105/323/56 1/222/56

